<mxfile host="app.diagrams.net" modified="2022-11-29T11:34:10.815Z" agent="5.0 (Windows NT 10.0; Win64; x64) AppleWebKit/537.36 (KHTML, like Gecko) Chrome/107.0.0.0 Safari/537.36" version="20.6.0" etag="xVF4Xdt6G7hXhqSvQKx6" type="github">
  <diagram id="N8MqQTOlSNgMpGO5mxi4" name="หน้า-1">
    <mxGraphModel dx="1240" dy="631" grid="1" gridSize="10" guides="1" tooltips="1" connect="1" arrows="1" fold="1" page="1" pageScale="1" pageWidth="827" pageHeight="1169" math="0" shadow="0">
      <root>
        <mxCell id="0" />
        <mxCell id="1" parent="0" />
        <mxCell id="yR9GWjnM_fhGDm85tatV-5" value="" style="edgeStyle=orthogonalEdgeStyle;rounded=0;orthogonalLoop=1;jettySize=auto;html=1;" edge="1" parent="1" source="yR9GWjnM_fhGDm85tatV-2" target="yR9GWjnM_fhGDm85tatV-4">
          <mxGeometry relative="1" as="geometry" />
        </mxCell>
        <mxCell id="yR9GWjnM_fhGDm85tatV-2" value="&lt;font style=&quot;vertical-align: inherit;&quot;&gt;&lt;font style=&quot;vertical-align: inherit;&quot;&gt;STRAT&lt;/font&gt;&lt;/font&gt;" style="ellipse;whiteSpace=wrap;html=1;" vertex="1" parent="1">
          <mxGeometry x="340" y="70" width="120" height="60" as="geometry" />
        </mxCell>
        <mxCell id="yR9GWjnM_fhGDm85tatV-7" value="" style="edgeStyle=orthogonalEdgeStyle;rounded=0;orthogonalLoop=1;jettySize=auto;html=1;" edge="1" parent="1" source="yR9GWjnM_fhGDm85tatV-4" target="yR9GWjnM_fhGDm85tatV-6">
          <mxGeometry relative="1" as="geometry" />
        </mxCell>
        <mxCell id="yR9GWjnM_fhGDm85tatV-4" value="&lt;font style=&quot;vertical-align: inherit;&quot;&gt;&lt;font style=&quot;vertical-align: inherit;&quot;&gt;กดเริ่มเล่น&lt;/font&gt;&lt;/font&gt;" style="whiteSpace=wrap;html=1;" vertex="1" parent="1">
          <mxGeometry x="340" y="170" width="120" height="60" as="geometry" />
        </mxCell>
        <mxCell id="yR9GWjnM_fhGDm85tatV-9" value="" style="edgeStyle=orthogonalEdgeStyle;rounded=0;orthogonalLoop=1;jettySize=auto;html=1;" edge="1" parent="1" source="yR9GWjnM_fhGDm85tatV-6" target="yR9GWjnM_fhGDm85tatV-8">
          <mxGeometry relative="1" as="geometry" />
        </mxCell>
        <mxCell id="yR9GWjnM_fhGDm85tatV-6" value="ทายเลข 1-10 ให้ตรงกับที่โจทย์ตั้งไว้" style="shape=display;whiteSpace=wrap;html=1;" vertex="1" parent="1">
          <mxGeometry x="280" y="270" width="240" height="80" as="geometry" />
        </mxCell>
        <mxCell id="yR9GWjnM_fhGDm85tatV-11" value="" style="edgeStyle=orthogonalEdgeStyle;rounded=0;orthogonalLoop=1;jettySize=auto;html=1;" edge="1" parent="1" source="yR9GWjnM_fhGDm85tatV-8" target="yR9GWjnM_fhGDm85tatV-10">
          <mxGeometry relative="1" as="geometry" />
        </mxCell>
        <mxCell id="yR9GWjnM_fhGDm85tatV-8" value="&lt;font style=&quot;vertical-align: inherit;&quot;&gt;&lt;font style=&quot;vertical-align: inherit;&quot;&gt;รับข้อมูลจากแป้นพิมพ์&lt;/font&gt;&lt;/font&gt;" style="shape=manualInput;whiteSpace=wrap;html=1;" vertex="1" parent="1">
          <mxGeometry x="340" y="380" width="120" height="80" as="geometry" />
        </mxCell>
        <mxCell id="yR9GWjnM_fhGDm85tatV-17" value="" style="edgeStyle=orthogonalEdgeStyle;rounded=0;orthogonalLoop=1;jettySize=auto;html=1;fillColor=#d5e8d4;strokeColor=#82b366;" edge="1" parent="1" source="yR9GWjnM_fhGDm85tatV-10" target="yR9GWjnM_fhGDm85tatV-15">
          <mxGeometry relative="1" as="geometry" />
        </mxCell>
        <mxCell id="yR9GWjnM_fhGDm85tatV-18" value="" style="edgeStyle=orthogonalEdgeStyle;rounded=0;orthogonalLoop=1;jettySize=auto;html=1;entryX=1;entryY=0.75;entryDx=0;entryDy=0;fillColor=#f8cecc;strokeColor=#b85450;" edge="1" parent="1" source="yR9GWjnM_fhGDm85tatV-10" target="yR9GWjnM_fhGDm85tatV-8">
          <mxGeometry relative="1" as="geometry">
            <mxPoint x="650" y="400" as="targetPoint" />
            <Array as="points">
              <mxPoint x="650" y="545" />
              <mxPoint x="650" y="440" />
            </Array>
          </mxGeometry>
        </mxCell>
        <mxCell id="yR9GWjnM_fhGDm85tatV-28" value="" style="edgeStyle=orthogonalEdgeStyle;rounded=0;orthogonalLoop=1;jettySize=auto;html=1;" edge="1" parent="1" source="yR9GWjnM_fhGDm85tatV-10">
          <mxGeometry relative="1" as="geometry">
            <mxPoint x="400" y="710" as="targetPoint" />
          </mxGeometry>
        </mxCell>
        <mxCell id="yR9GWjnM_fhGDm85tatV-10" value="&lt;font style=&quot;font-size: 14px;&quot;&gt;ตัวเลข &amp;gt; 10&lt;/font&gt;" style="rhombus;whiteSpace=wrap;html=1;" vertex="1" parent="1">
          <mxGeometry x="320" y="505" width="160" height="80" as="geometry" />
        </mxCell>
        <mxCell id="yR9GWjnM_fhGDm85tatV-24" value="" style="edgeStyle=orthogonalEdgeStyle;rounded=0;orthogonalLoop=1;jettySize=auto;html=1;" edge="1" parent="1" source="yR9GWjnM_fhGDm85tatV-13">
          <mxGeometry relative="1" as="geometry">
            <mxPoint x="400" y="710" as="targetPoint" />
            <Array as="points">
              <mxPoint x="660" y="640" />
              <mxPoint x="400" y="640" />
              <mxPoint x="400" y="690" />
            </Array>
          </mxGeometry>
        </mxCell>
        <mxCell id="yR9GWjnM_fhGDm85tatV-13" value="&lt;font style=&quot;vertical-align: inherit;&quot;&gt;&lt;font style=&quot;vertical-align: inherit;&quot;&gt;Fail&lt;/font&gt;&lt;/font&gt;" style="shape=display;whiteSpace=wrap;html=1;" vertex="1" parent="1">
          <mxGeometry x="600" y="515" width="120" height="60" as="geometry" />
        </mxCell>
        <mxCell id="yR9GWjnM_fhGDm85tatV-22" value="" style="edgeStyle=orthogonalEdgeStyle;rounded=0;orthogonalLoop=1;jettySize=auto;html=1;" edge="1" parent="1" source="yR9GWjnM_fhGDm85tatV-15">
          <mxGeometry relative="1" as="geometry">
            <mxPoint x="400" y="710" as="targetPoint" />
            <Array as="points">
              <mxPoint x="140" y="640" />
              <mxPoint x="400" y="640" />
            </Array>
          </mxGeometry>
        </mxCell>
        <mxCell id="yR9GWjnM_fhGDm85tatV-15" value="&lt;font style=&quot;vertical-align: inherit;&quot;&gt;&lt;font style=&quot;vertical-align: inherit;&quot;&gt;&lt;font style=&quot;vertical-align: inherit;&quot;&gt;&lt;font style=&quot;vertical-align: inherit;&quot;&gt;win&lt;/font&gt;&lt;/font&gt;&lt;/font&gt;&lt;/font&gt;" style="shape=display;whiteSpace=wrap;html=1;" vertex="1" parent="1">
          <mxGeometry x="80" y="515" width="120" height="60" as="geometry" />
        </mxCell>
        <mxCell id="yR9GWjnM_fhGDm85tatV-19" value="&lt;font style=&quot;vertical-align: inherit;&quot;&gt;&lt;font style=&quot;vertical-align: inherit;&quot;&gt;ไม่เกิน 10&lt;/font&gt;&lt;/font&gt;" style="text;html=1;strokeColor=none;fillColor=none;align=center;verticalAlign=middle;whiteSpace=wrap;rounded=0;" vertex="1" parent="1">
          <mxGeometry x="230" y="510" width="60" height="30" as="geometry" />
        </mxCell>
        <mxCell id="yR9GWjnM_fhGDm85tatV-20" value="เกิน 10" style="text;html=1;strokeColor=none;fillColor=none;align=center;verticalAlign=middle;whiteSpace=wrap;rounded=0;" vertex="1" parent="1">
          <mxGeometry x="500" y="510" width="60" height="30" as="geometry" />
        </mxCell>
        <mxCell id="yR9GWjnM_fhGDm85tatV-25" value="&lt;font style=&quot;vertical-align: inherit;&quot;&gt;&lt;font style=&quot;vertical-align: inherit;&quot;&gt;END&lt;/font&gt;&lt;/font&gt;" style="ellipse;whiteSpace=wrap;html=1;" vertex="1" parent="1">
          <mxGeometry x="340" y="720" width="120" height="60" as="geometry" />
        </mxCell>
      </root>
    </mxGraphModel>
  </diagram>
</mxfile>
